<?xml version="1.0" encoding="UTF-8"?>
<!DOCTYPE svg PUBLIC "-//W3C//DTD SVG 1.1//EN" "http://www.w3.org/Graphics/SVG/1.1/DTD/svg11.dtd">
<!-- Creator: CorelDRAW X6 -->
<svg xmlns="http://www.w3.org/2000/svg" xml:space="preserve" width="297mm" height="210mm" version="1.1" style="shape-rendering:geometricPrecision; text-rendering:geometricPrecision; image-rendering:optimizeQuality; fill-rule:evenodd; clip-rule:evenodd"
viewBox="0 0 29700 21000"
 xmlns:xlink="http://www.w3.org/1999/xlink">
 <defs>
  <style type="text/css">
   <![CDATA[
    .str0 {stroke:#D97F38;stroke-width:7.62}
    .str1 {stroke:#D97F38;stroke-width:20}
    .fil1 {fill:none}
    .fil0 {fill:#D97F38;fill-rule:nonzero}
   ]]>
  </style>
 </defs>
 <g id="Camada_x0020_1">
  <metadata id="CorelCorpID_0Corel-Layer"/>
  <path class="fil0 str0" d="M3288 3537l-271 0c-9,-38 -13,-83 -13,-138 0,-52 4,-98 13,-138l271 0 0 -127c0,-223 61,-393 182,-510 122,-116 289,-175 502,-175 86,0 164,6 234,18 70,12 149,34 237,67 0,54 -8,105 -23,153 -15,48 -33,92 -55,132 -65,-28 -123,-48 -176,-60 -53,-12 -117,-18 -192,-18 -56,0 -108,5 -155,16 -47,11 -88,31 -123,60 -34,29 -62,71 -82,123 -20,53 -31,121 -31,203l0 116 998 0 0 1810c-24,5 -50,8 -79,11 -29,2 -55,4 -79,4 -24,0 -50,-1 -79,-4 -29,-2 -55,-6 -79,-11l0 -1535 -681 0 0 1535c-24,5 -50,8 -79,11 -29,2 -55,4 -79,4 -24,0 -51,-1 -81,-4 -30,-2 -57,-6 -81,-11l0 -1535zm1805 1207c58,26 122,46 192,62 70,15 139,23 208,23 50,0 97,-6 142,-18 45,-12 84,-29 118,-53 33,-24 60,-52 81,-86 20,-34 31,-72 31,-115 0,-47 -8,-86 -24,-116 -16,-31 -38,-56 -65,-78 -27,-21 -58,-39 -94,-55 -36,-15 -74,-30 -115,-44l-113 -46c-138,-56 -238,-120 -300,-191 -62,-71 -94,-166 -94,-286 0,-160 52,-287 157,-381 104,-94 258,-141 460,-141 84,0 166,9 247,26 81,18 151,38 211,62 -4,47 -12,94 -24,141 -12,47 -26,91 -44,131 -47,-19 -104,-37 -170,-55 -66,-18 -136,-26 -212,-26 -80,0 -150,15 -212,46 -61,31 -92,85 -92,162 0,40 8,74 23,102 15,28 36,52 61,72 26,20 55,37 89,51 33,14 69,28 108,42l142 53c52,19 101,41 147,67 46,26 86,58 119,97 33,39 60,86 81,141 20,55 31,122 31,199 0,87 -16,166 -48,238 -32,72 -78,133 -137,183 -59,51 -131,90 -215,118 -84,28 -177,42 -278,42 -103,0 -194,-8 -271,-23 -77,-15 -150,-36 -216,-62 4,-47 13,-95 27,-143 14,-48 30,-96 47,-143zm2603 14c17,33 32,74 45,123 13,49 20,100 23,152 -127,54 -272,81 -436,81 -276,0 -483,-85 -623,-256 -140,-171 -210,-400 -210,-690 0,-134 17,-259 52,-374 34,-115 86,-215 153,-300 68,-85 152,-152 253,-201 101,-49 218,-74 352,-74 90,0 170,6 239,18 69,12 135,31 197,56 0,40 -5,86 -15,139 -10,53 -23,99 -40,139 -105,-40 -226,-60 -362,-60 -166,0 -290,60 -371,180 -82,120 -123,279 -123,476 0,226 46,391 139,496 93,105 220,157 381,157 65,0 124,-5 179,-14 55,-9 110,-26 166,-49zm1314 -536c-32,-5 -73,-9 -123,-14 -50,-5 -91,-7 -126,-7 -133,0 -235,27 -305,81 -70,54 -105,136 -105,247 0,71 12,126 36,166 24,40 53,71 89,92 36,21 75,34 118,39 43,5 84,7 123,7 50,0 101,-3 153,-9 53,-6 100,-15 140,-26l0 -575zm0 -342c0,-139 -32,-235 -97,-289 -65,-54 -158,-81 -281,-81 -75,0 -146,6 -212,19 -66,13 -130,30 -192,51 -41,-78 -61,-171 -61,-279 73,-26 154,-46 242,-60 88,-14 173,-21 255,-21 215,0 379,54 491,161 112,107 168,278 168,513l0 1132c-75,19 -167,38 -274,58 -108,20 -217,30 -329,30 -105,0 -201,-11 -286,-32 -85,-21 -157,-55 -216,-102 -59,-47 -105,-107 -137,-180 -32,-73 -48,-161 -48,-265 0,-101 19,-190 57,-266 38,-76 89,-140 153,-191 65,-51 139,-88 223,-113 84,-25 172,-37 265,-37 69,0 125,2 170,5 44,4 81,8 111,12l0 -67zm788 -1393c24,-5 50,-8 79,-11 29,-2 55,-4 79,-4 24,0 50,1 79,4 29,2 55,6 79,11l0 2039c0,66 5,118 16,155 11,38 25,66 44,86 18,20 40,33 65,39 25,6 51,9 79,9 19,0 41,-1 66,-4 25,-2 46,-6 63,-11 19,82 29,172 29,268 -30,12 -67,19 -110,23 -43,4 -83,5 -119,5 -62,0 -121,-8 -174,-25 -54,-16 -101,-44 -142,-81 -41,-38 -73,-88 -97,-152 -24,-64 -36,-142 -36,-236l0 -2117zm1066 1051l-210 0c-4,-19 -8,-41 -10,-65 -2,-25 -3,-49 -3,-72 0,-24 1,-48 3,-72 2,-25 5,-46 10,-65l523 0 0 1810c-24,5 -50,8 -79,11 -29,2 -55,4 -79,4 -22,0 -47,-1 -76,-4 -29,-2 -55,-6 -79,-11l0 -1535zm-71 -674c-4,-28 -7,-59 -8,-92 -1,-33 -2,-62 -2,-88 0,-26 1,-55 2,-88 1,-33 4,-62 8,-88 28,-5 58,-8 90,-11 32,-2 60,-4 84,-4 24,0 52,1 84,4 32,2 61,6 87,11 4,26 7,55 8,88 1,33 2,62 2,88 0,26 -1,55 -2,88 -1,33 -4,64 -8,92 -26,5 -54,8 -86,11 -31,2 -59,4 -82,4 -26,0 -55,-1 -87,-4 -32,-2 -62,-6 -90,-11zm739 2159l872 -1482 -768 0c-6,-42 -10,-89 -10,-141 0,-49 3,-95 10,-138l1243 0 16 46 -878 1485 823 0c6,47 10,95 10,145 0,47 -3,92 -10,134l-1292 0 -16 -49zm1889 -769c4,198 51,342 140,434 89,92 221,138 396,138 153,0 298,-29 436,-88 17,35 31,78 42,129 11,51 17,101 19,150 -71,33 -149,58 -234,74 -85,16 -179,25 -283,25 -151,0 -280,-23 -387,-69 -108,-46 -196,-111 -266,-194 -70,-83 -121,-182 -153,-296 -32,-114 -48,-239 -48,-376 0,-134 16,-259 47,-376 31,-116 79,-218 144,-303 65,-86 146,-154 244,-205 98,-51 214,-76 347,-76 114,0 214,21 300,64 86,42 158,101 216,175 58,74 102,162 132,265 30,102 45,213 45,333 0,33 -1,68 -3,104 -2,36 -4,68 -6,93l-1127 0zm820 -261c0,-66 -8,-129 -24,-189 -16,-60 -40,-112 -71,-157 -31,-45 -71,-81 -119,-108 -48,-27 -106,-41 -173,-41 -131,0 -232,44 -302,131 -70,87 -112,208 -128,363l817 0zm672 1080c-4,-33 -8,-65 -11,-97 -3,-32 -5,-64 -5,-97 0,-33 2,-66 5,-101 3,-34 7,-68 11,-101 30,-5 60,-8 89,-11 29,-2 59,-4 89,-4 30,0 60,1 90,4 30,2 60,6 90,11 4,33 8,66 11,99 3,33 5,66 5,99 0,33 -2,66 -5,99 -3,33 -7,66 -11,99 -30,5 -60,8 -89,11 -29,2 -59,4 -89,4 -30,0 -60,-1 -90,-4 -30,-2 -60,-6 -90,-11zm827 -1810c24,-5 47,-8 69,-11 23,-2 46,-4 69,-4 24,0 46,1 66,4 20,2 43,6 66,11 6,35 13,82 19,139 6,58 10,106 10,146 19,-42 44,-83 73,-122 29,-39 64,-74 103,-104 40,-31 86,-55 137,-74 52,-19 109,-28 171,-28 129,0 229,29 299,86 70,58 123,138 160,242 22,-40 48,-80 79,-120 31,-40 66,-75 105,-106 39,-31 83,-55 132,-74 50,-19 105,-28 168,-28 192,0 331,59 418,176 87,118 131,292 131,522l0 1154c-24,5 -51,8 -81,11 -30,2 -57,4 -81,4 -24,0 -50,-1 -79,-4 -29,-2 -55,-6 -79,-11l0 -1051c0,-162 -23,-284 -68,-365 -45,-81 -119,-122 -223,-122 -110,0 -199,44 -266,131 -68,87 -102,215 -102,385l0 1023c-24,5 -50,8 -79,11 -29,2 -55,4 -79,4 -24,0 -50,-1 -79,-4 -29,-2 -55,-6 -79,-11l0 -1076c0,-158 -22,-276 -65,-355 -43,-79 -112,-118 -207,-118 -54,0 -104,13 -152,39 -47,26 -89,65 -124,116 -36,52 -64,117 -84,196 -20,79 -31,170 -31,273l0 924c-24,5 -50,8 -79,11 -29,2 -55,4 -79,4 -24,0 -51,-1 -81,-4 -30,-2 -57,-6 -81,-11l0 -1810zm2996 991c4,198 51,342 140,434 89,92 221,138 396,138 153,0 298,-29 436,-88 17,35 31,78 42,129 11,51 17,101 19,150 -71,33 -149,58 -234,74 -85,16 -179,25 -283,25 -151,0 -280,-23 -387,-69 -108,-46 -196,-111 -266,-194 -70,-83 -121,-182 -153,-296 -32,-114 -48,-239 -48,-376 0,-134 16,-259 47,-376 31,-116 79,-218 144,-303 65,-86 146,-154 244,-205 98,-51 214,-76 347,-76 114,0 214,21 300,64 86,42 158,101 216,175 58,74 102,162 132,265 30,102 45,213 45,333 0,33 -1,68 -3,104 -2,36 -4,68 -6,93l-1127 0zm820 -261c0,-66 -8,-129 -24,-189 -16,-60 -40,-112 -71,-157 -31,-45 -71,-81 -119,-108 -48,-27 -106,-41 -173,-41 -131,0 -232,44 -302,131 -70,87 -112,208 -128,363l817 0z"/>
  <path class="fil0" d="M6742 14519l0 3135 -636 0 0 -3794c0,-921 507,-1381 1522,-1381 320,0 657,68 1014,206l0 517c-342,-138 -681,-207 -1017,-207 -588,0 -882,268 -882,803l0 238 2157 0 0 3617 -637 0 0 -3135 -1519 0z"/>
  <rect class="fil1 str1" x="4346" y="11265" width="7017" height="7382"/>
 </g>
</svg>
